<svg version="1.1" id="Layer_1" xmlns="http://www.w3.org/2000/svg" xmlns:xlink="http://www.w3.org/1999/xlink" x="0px" y="0px"
	 width="100%" viewBox="0 0 220 220" enable-background="new 0 0 220 220" xml:space="preserve">
<path fill="#161B23" opacity="1.000000" stroke="none"
	d="
M155.000000,221.000000
	C103.333336,221.000000 52.166672,221.000000 1.000007,221.000000
	C1.000005,147.666672 1.000005,74.333351 1.000002,1.000017
	C74.333321,1.000011 147.666641,1.000011 220.999969,1.000006
	C220.999985,74.333321 220.999985,147.666641 221.000000,220.999969
	C199.166672,221.000000 177.333328,221.000000 155.000000,221.000000
M181.671280,154.263824
	C183.812454,152.987457 186.099213,151.902771 188.071869,150.404510
	C204.528244,137.905731 211.815018,121.378067 207.950027,100.983223
	C204.170364,81.038689 191.784698,67.776253 172.310013,62.558071
	C152.642136,57.288124 135.391891,62.703354 121.877968,78.277618
	C117.083916,83.802582 112.842781,89.807228 108.347641,95.591652
	C99.564331,106.894173 91.162827,118.522903 81.876175,129.395554
	C74.286736,138.281143 61.933311,140.293259 51.188248,135.751007
	C40.996067,131.442474 33.892387,120.476959 34.267899,109.632141
	C34.682701,97.652641 42.331238,87.599182 53.618652,83.779152
	C63.985062,80.270821 72.800148,83.544571 81.315147,89.301765
	C87.523056,93.499077 93.036591,92.880463 96.850609,88.047440
	C100.666374,83.212196 99.591782,77.281456 93.971710,72.273796
	C87.523689,66.528404 79.643974,64.002907 71.397896,62.395473
	C45.555500,57.357937 21.615698,71.461433 14.747873,95.717316
	C7.542658,121.164810 20.776550,147.419418 45.383125,156.494263
	C66.341675,164.223724 88.138153,157.331909 103.269005,137.890930
	C114.006798,124.094398 124.416786,110.043205 135.054001,96.167709
	C139.353928,90.558762 144.284973,85.582634 151.264481,83.387085
	C163.187668,79.636391 176.608170,84.649025 183.073700,95.126656
	C189.822174,106.062805 188.293289,120.416389 179.389938,129.711090
	C170.730118,138.751556 157.113846,140.608459 145.908020,134.222519
	C143.020721,132.577133 140.331146,130.555344 137.360733,129.092163
	C132.896408,126.893120 128.848206,128.161514 125.602943,131.641724
	C122.283859,135.201111 121.547707,139.673340 124.291435,143.564224
	C126.612137,146.855209 129.810608,149.912201 133.282166,151.940277
	C148.640976,160.912827 164.631302,162.251144 181.671280,154.263824
z"/>
<path fill="#00A4EB" opacity="1.000000" stroke="none"
	d="
M181.350128,154.457733
	C164.631302,162.251144 148.640976,160.912827 133.282166,151.940277
	C129.810608,149.912201 126.612137,146.855209 124.291435,143.564224
	C121.547707,139.673340 122.283859,135.201111 125.602943,131.641724
	C128.848206,128.161514 132.896408,126.893120 137.360733,129.092163
	C140.331146,130.555344 143.020721,132.577133 145.908020,134.222519
	C157.113846,140.608459 170.730118,138.751556 179.389938,129.711090
	C188.293289,120.416389 189.822174,106.062805 183.073700,95.126656
	C176.608170,84.649025 163.187668,79.636391 151.264481,83.387085
	C144.284973,85.582634 139.353928,90.558762 135.054001,96.167709
	C124.416786,110.043205 114.006798,124.094398 103.269005,137.890930
	C88.138153,157.331909 66.341675,164.223724 45.383125,156.494263
	C20.776550,147.419418 7.542658,121.164810 14.747873,95.717316
	C21.615698,71.461433 45.555500,57.357937 71.397896,62.395473
	C79.643974,64.002907 87.523689,66.528404 93.971710,72.273796
	C99.591782,77.281456 100.666374,83.212196 96.850609,88.047440
	C93.036591,92.880463 87.523056,93.499077 81.315147,89.301765
	C72.800148,83.544571 63.985062,80.270821 53.618652,83.779152
	C42.331238,87.599182 34.682701,97.652641 34.267899,109.632141
	C33.892387,120.476959 40.996067,131.442474 51.188248,135.751007
	C61.933311,140.293259 74.286736,138.281143 81.876175,129.395554
	C91.162827,118.522903 99.564331,106.894173 108.347641,95.591652
	C112.842781,89.807228 117.083916,83.802582 121.877968,78.277618
	C135.391891,62.703354 152.642136,57.288124 172.310013,62.558071
	C191.784698,67.776253 204.170364,81.038689 207.950027,100.983223
	C211.815018,121.378067 204.528244,137.905731 188.071869,150.404510
	C186.099213,151.902771 183.812454,152.987457 181.350128,154.457733
z"/>
</svg>
